HIERARCHY
ROOT Root
{
  OFFSET 0.0 0.0 0.0
  CHANNELS 6 Xposition Yposition Zposition Zrotation Yrotation Xrotation
  JOINT Hips
  {
    OFFSET 0.0 100.0 0.0
    CHANNELS 6 Xposition Yposition Zposition Zrotation Yrotation Xrotation
    JOINT Spine1
    {
      OFFSET -0.013727 5.003763 -0.053727
      CHANNELS 3 Zrotation Yrotation Xrotation
      JOINT Spine2
      {
        OFFSET -0.0 7.125301 -0.029825
        CHANNELS 3 Zrotation Yrotation Xrotation
        JOINT Chest
        {
          OFFSET -1e-06 7.550063 -0.815971
          CHANNELS 3 Zrotation Yrotation Xrotation
          JOINT Neck1
          {
            OFFSET -0.181677 26.311295 -0.553348
            CHANNELS 3 Zrotation Yrotation Xrotation
            JOINT Neck2
            {
              OFFSET -3e-06 7.709397 2.302585
              CHANNELS 3 Zrotation Yrotation Xrotation
              JOINT Head
              {
                OFFSET -5e-06 6.128916 1.953709
                CHANNELS 3 Zrotation Yrotation Xrotation
                JOINT HeadEnd
                {
                  OFFSET 0.003598 16.065403 -1.835379
                  CHANNELS 3 Zrotation Yrotation Xrotation
                }
                JOINT Jaw
                {
                  OFFSET 0.002637 0.475592 3.094941
                  CHANNELS 3 Zrotation Yrotation Xrotation
                }
                JOINT LeftEye
                {
                  OFFSET 3.206381 5.380205 7.586883
                  CHANNELS 3 Zrotation Yrotation Xrotation
                }
                JOINT RightEye
                {
                  OFFSET -3.22244 5.361869 7.558234
                  CHANNELS 3 Zrotation Yrotation Xrotation
                }
              }
            }
          }
          JOINT LeftShoulder
          {
            OFFSET 1.621652 23.237164 5.113413
            CHANNELS 3 Zrotation Yrotation Xrotation
            JOINT LeftArm
            {
              OFFSET 14.919846 2e-06 -5.502326
              CHANNELS 3 Zrotation Yrotation Xrotation
              JOINT LeftForeArm
              {
                OFFSET 28.739307 0.0 -0.002588
                CHANNELS 3 Zrotation Yrotation Xrotation
                JOINT LeftHand
                {
                  OFFSET 27.093981 -1e-06 0.002609
                  CHANNELS 3 Zrotation Yrotation Xrotation
                  JOINT LeftHandThumb1
                  {
                    OFFSET 2.276482 -1.392045 3.191413
                    CHANNELS 3 Zrotation Yrotation Xrotation
                    JOINT LeftHandThumb2
                    {
                      OFFSET 4.012836 -1.828127 1.641654
                      CHANNELS 3 Zrotation Yrotation Xrotation
                      JOINT LeftHandThumb3
                      {
                        OFFSET 2.798515 0.0 -3e-06
                        CHANNELS 3 Zrotation Yrotation Xrotation
                        JOINT LeftHandThumbEnd
                        {
                          OFFSET 3.180793 -4e-06 4e-06
                          CHANNELS 3 Zrotation Yrotation Xrotation
                        }
                      }
                    }
                  }
                  JOINT LeftHandIndex1
                  {
                    OFFSET 3.247555 -0.531998 2.296169
                    CHANNELS 3 Zrotation Yrotation Xrotation
                    JOINT LeftHandIndex2
                    {
                      OFFSET 6.364578 0.01206 0.1786
                      CHANNELS 3 Zrotation Yrotation Xrotation
                      JOINT LeftHandIndex3
                      {
                        OFFSET 3.662364 0.0 0.0
                        CHANNELS 3 Zrotation Yrotation Xrotation
                        JOINT LeftHandIndex4
                        {
                          OFFSET 2.329242 4e-06 4e-06
                          CHANNELS 3 Zrotation Yrotation Xrotation
                          JOINT LeftHandIndexEnd
                          {
                            OFFSET 2.759615 -0.180537 -0.113024
                            CHANNELS 3 Zrotation Yrotation Xrotation
                          }
                        }
                      }
                    }
                  }
                  JOINT LeftHandMiddle1
                  {
                    OFFSET 3.163495 0.240981 1.000332
                    CHANNELS 3 Zrotation Yrotation Xrotation
                    JOINT LeftHandMiddle2
                    {
                      OFFSET 6.19078 -0.259278 -1.002548
                      CHANNELS 3 Zrotation Yrotation Xrotation
                      JOINT LeftHandMiddle3
                      {
                        OFFSET 4.35652 -4e-06 -1e-06
                        CHANNELS 3 Zrotation Yrotation Xrotation
                        JOINT LeftHandMiddle4
                        {
                          OFFSET 2.996877 -8e-06 0.0
                          CHANNELS 3 Zrotation Yrotation Xrotation
                          JOINT LeftHandMiddleEnd
                          {
                            OFFSET 2.304287 -0.294569 -0.031741
                            CHANNELS 3 Zrotation Yrotation Xrotation
                          }
                        }
                      }
                    }
                  }
                  JOINT LeftHandRing1
                  {
                    OFFSET 2.882643 -0.053652 -0.322543
                    CHANNELS 3 Zrotation Yrotation Xrotation
                    JOINT LeftHandRing2
                    {
                      OFFSET 5.854541 -0.486202 -1.373841
                      CHANNELS 3 Zrotation Yrotation Xrotation
                      JOINT LeftHandRing3
                      {
                        OFFSET 4.350578 0.0 3e-06
                        CHANNELS 3 Zrotation Yrotation Xrotation
                        JOINT LeftHandRing4
                        {
                          OFFSET 2.651321 7e-06 2e-06
                          CHANNELS 3 Zrotation Yrotation Xrotation
                          JOINT LeftHandRingEnd
                          {
                            OFFSET 1.936105 0.077687 -7.1e-05
                            CHANNELS 3 Zrotation Yrotation Xrotation
                          }
                        }
                      }
                    }
                  }
                  JOINT LeftHandPinky1
                  {
                    OFFSET 2.8655 -0.310005 -1.600378
                    CHANNELS 3 Zrotation Yrotation Xrotation
                    JOINT LeftHandPinky2
                    {
                      OFFSET 5.087849 -1.331141 -1.77123
                      CHANNELS 3 Zrotation Yrotation Xrotation
                      JOINT LeftHandPinky3
                      {
                        OFFSET 3.070974 4e-06 0.0
                        CHANNELS 3 Zrotation Yrotation Xrotation
                        JOINT LeftHandPinky4
                        {
                          OFFSET 1.549672 0.0 1e-06
                          CHANNELS 3 Zrotation Yrotation Xrotation
                          JOINT LeftHandPinkyEnd
                          {
                            OFFSET 1.944893 -0.157802 0.057219
                            CHANNELS 3 Zrotation Yrotation Xrotation
                          }
                        }
                      }
                    }
                  }
                }
              }
            }
          }
          JOINT RightShoulder
          {
            OFFSET -1.380118 23.180309 5.214158
            CHANNELS 3 Zrotation Yrotation Xrotation
            JOINT RightArm
            {
              OFFSET -15.037196 1.2e-05 -5.545604
              CHANNELS 3 Zrotation Yrotation Xrotation
              JOINT RightForeArm
              {
                OFFSET -28.736639 2e-06 -0.002597
                CHANNELS 3 Zrotation Yrotation Xrotation
                JOINT RightHand
                {
                  OFFSET -27.133619 -0.0 0.002613
                  CHANNELS 3 Zrotation Yrotation Xrotation
                  JOINT RightHandThumb1
                  {
                    OFFSET -2.274032 -1.383988 3.163127
                    CHANNELS 3 Zrotation Yrotation Xrotation
                    JOINT RightHandThumb2
                    {
                      OFFSET -4.011429 -1.827466 1.640914
                      CHANNELS 3 Zrotation Yrotation Xrotation
                      JOINT RightHandThumb3
                      {
                        OFFSET -2.794935 -4e-06 -3e-06
                        CHANNELS 3 Zrotation Yrotation Xrotation
                        JOINT RightHandThumbEnd
                        {
                          OFFSET -3.183852 4e-06 1e-06
                          CHANNELS 3 Zrotation Yrotation Xrotation
                        }
                      }
                    }
                  }
                  JOINT RightHandIndex1
                  {
                    OFFSET -3.253266 -0.520057 2.282866
                    CHANNELS 3 Zrotation Yrotation Xrotation
                    JOINT RightHandIndex2
                    {
                      OFFSET -6.341917 0.012471 0.178266
                      CHANNELS 3 Zrotation Yrotation Xrotation
                      JOINT RightHandIndex3
                      {
                        OFFSET -3.654871 -8e-06 -0.0
                        CHANNELS 3 Zrotation Yrotation Xrotation
                        JOINT RightHandIndex4
                        {
                          OFFSET -2.327586 0.0 1e-06
                          CHANNELS 3 Zrotation Yrotation Xrotation
                          JOINT RightHandIndexEnd
                          {
                            OFFSET -2.76179 -0.180656 -0.113078
                            CHANNELS 3 Zrotation Yrotation Xrotation
                          }
                        }
                      }
                    }
                  }
                  JOINT RightHandMiddle1
                  {
                    OFFSET -3.168106 0.246593 1.00103
                    CHANNELS 3 Zrotation Yrotation Xrotation
                    JOINT RightHandMiddle2
                    {
                      OFFSET -6.180828 -0.258836 -1.000895
                      CHANNELS 3 Zrotation Yrotation Xrotation
                      JOINT RightHandMiddle3
                      {
                        OFFSET -4.348901 0.0 -0.0
                        CHANNELS 3 Zrotation Yrotation Xrotation
                        JOINT RightHandMiddle4
                        {
                          OFFSET -3.00024 -4e-06 -2e-06
                          CHANNELS 3 Zrotation Yrotation Xrotation
                          JOINT RightHandMiddleEnd
                          {
                            OFFSET -2.30252 -0.29437 -0.031706
                            CHANNELS 3 Zrotation Yrotation Xrotation
                          }
                        }
                      }
                    }
                  }
                  JOINT RightHandRing1
                  {
                    OFFSET -2.88569 -0.067952 -0.308858
                    CHANNELS 3 Zrotation Yrotation Xrotation
                    JOINT RightHandRing2
                    {
                      OFFSET -5.854198 -0.48613 -1.373731
                      CHANNELS 3 Zrotation Yrotation Xrotation
                      JOINT RightHandRing3
                      {
                        OFFSET -4.33881 -4e-06 -0.0
                        CHANNELS 3 Zrotation Yrotation Xrotation
                        JOINT RightHandRing4
                        {
                          OFFSET -2.654903 -4e-06 4e-06
                          CHANNELS 3 Zrotation Yrotation Xrotation
                          JOINT RightHandRingEnd
                          {
                            OFFSET -1.933568 0.077527 -5.2e-05
                            CHANNELS 3 Zrotation Yrotation Xrotation
                          }
                        }
                      }
                    }
                  }
                  JOINT RightHandPinky1
                  {
                    OFFSET -2.866425 -0.342796 -1.584145
                    CHANNELS 3 Zrotation Yrotation Xrotation
                    JOINT RightHandPinky2
                    {
                      OFFSET -5.091371 -1.332055 -1.772385
                      CHANNELS 3 Zrotation Yrotation Xrotation
                      JOINT RightHandPinky3
                      {
                        OFFSET -3.062664 -4e-06 1e-06
                        CHANNELS 3 Zrotation Yrotation Xrotation
                        JOINT RightHandPinky4
                        {
                          OFFSET -1.546529 4e-06 -2e-06
                          CHANNELS 3 Zrotation Yrotation Xrotation
                          JOINT RightHandPinkyEnd
                          {
                            OFFSET -1.945119 -0.157718 0.057211
                            CHANNELS 3 Zrotation Yrotation Xrotation
                          }
                        }
                      }
                    }
                  }
                }
              }
            }
          }
        }
      }
    }
    JOINT LeftLeg
    {
      OFFSET 10.043214 -8.434526 2.595655
      CHANNELS 3 Zrotation Yrotation Xrotation
      JOINT LeftShin
      {
        OFFSET -1e-06 -43.221752 -0.802913
        CHANNELS 3 Zrotation Yrotation Xrotation
        JOINT LeftFoot
        {
          OFFSET 1e-06 -42.155094 -3.481523
          CHANNELS 3 Zrotation Yrotation Xrotation
          JOINT LeftToeBase
          {
            OFFSET 0.0 -5.059472 13.231529
            CHANNELS 3 Zrotation Yrotation Xrotation
            JOINT LeftToeEnd
            {
              OFFSET -0.009607 -1.647619 6.513017
              CHANNELS 3 Zrotation Yrotation Xrotation
            }
          }
        }
      }
    }
    JOINT RightLeg
    {
      OFFSET -10.047278 -8.29526 2.620317
      CHANNELS 3 Zrotation Yrotation Xrotation
      JOINT RightShin
      {
        OFFSET 1e-06 -43.362206 -0.805556
        CHANNELS 3 Zrotation Yrotation Xrotation
        JOINT RightFoot
        {
          OFFSET 2e-06 -42.117393 -3.478398
          CHANNELS 3 Zrotation Yrotation Xrotation
          JOINT RightToeBase
          {
            OFFSET -0.0 -5.079609 13.284196
            CHANNELS 3 Zrotation Yrotation Xrotation
            JOINT RightToeEnd
            {
              OFFSET 0.009532 -1.634378 6.460591
              CHANNELS 3 Zrotation Yrotation Xrotation
            }
          }
        }
      }
    }
  }
}
MOTION
Frames: 4
Frame Time: 0.03333333333333333
0.0 0.0 0.0 0.0 -0.0 0.0 1.77888 98.730995 3.582678 2.140328 -0.267393 -1.713313 -1.939986 0.083975 -0.768988 -0.705413 0.724278 -5.105075 -0.116823 -1.813404 12.347037 -1.951551 4.472859 17.548624 -1.020736 -1.015711 -3.504941 1.32522 -1.734515 1.199982 7.7e-05 -2.2e-05 6e-06 0.023027 0.030249 -0.039451 0.777254 -3.689887 -10.559835 -0.738119 3.75862 -10.56464 -28.132893 -3.749787 14.797687 -49.266171 2.928531 2.043988 0.277471 -31.036076 0.095675 10.327921 5.875002 -3.787376 -5.882114 9.861299 0.702592 -10.936888 -0.360574 7.156213 1e-06 8.774837 -1e-06 -16.422541 18.335541 5.938361 -1.844035 2.498507 -2.50728 -10.163615 4.678952 4.621114 -20.976055 -3e-06 1e-06 -21.226322 2.4517 -3.594006 -1e-06 -6e-06 0.0 -1.362684 2.240801 -0.746324 -21.334946 0.584911 3.008325 -13.821235 -2e-06 0.0 -23.887205 -0.24908 -0.839485 -60.152077 2.382909 -1.05432 -0.294025 1.679689 0.833257 -14.21823 0.093216 1.300581 -34.212105 -0.287564 0.967168 -20.033243 0.964536 1.212842 1e-06 -0.0 -1e-06 -3.440394 0.788235 0.501656 -15.928209 -3.167312 2.999709 -6.338836 -1e-06 0.0 -18.123476 3.648189 -4.905678 -5e-06 0.0 -2e-06 18.517429 10.875574 15.217339 52.004955 3.806322 15.546875 -0.316571 27.180111 0.0427 -1.173438 0.812247 -9.162647 2.243546 -5.255044 -3.180161 14.282912 -0.826597 6.952507 -2e-06 -12.690619 -1e-06 16.038719 -17.626898 2.474299 1.665669 -1.955924 -2.878303 4.727805 -4.170592 4.993928 11.020542 2e-06 -0.0 12.10907 -3.735719 -2.866789 -0.0 -0.0 -0.0 1.291987 -1.928551 -1.498092 14.800149 0.567467 3.865608 14.242593 -1.341738 -6.660667 19.631992 0.143925 -0.648248 49.639259 -0.539559 -6.124044 0.353029 -1.511152 -0.03194 20.22282 3.684312 2.316629 18.7873 5e-06 -4e-06 10.751643 -0.479868 1.397907 -1e-06 0.0 0.0 3.273811 0.305947 -0.580112 21.486847 11.83039 2.266132 8.162939 1e-06 -3e-06 18.399111 -3.798988 -4.940586 4e-06 -0.0 -1e-06 -4.433807 6.572331 -15.403738 -0.036614 -0.02837 16.489006 -5.883394 -1.390351 0.718736 1.663863 -1.807378 -4.506601 -0.0 0.0 2e-06 -5.192526 -5.532727 0.074516 -0.085841 0.004271 37.550774 1.439069 4.22969 -3.812304 -1.582914 0.966276 -17.662188 -0.0 0.0 -1e-06 
0.0 0.0 0.0 0.0 -0.0 0.0 2.179901 98.989899 4.702905 2.93079 -0.675857 -2.28145 -2.501222 -0.028961 -0.34852 -0.706059 0.531599 -4.902112 -0.634578 -1.902992 12.218772 -1.926853 4.576761 17.899523 -1.106151 -1.369932 -3.511755 1.289181 -1.760663 0.92975 7.7e-05 -2.2e-05 5e-06 0.014157 0.040476 -0.065752 0.771434 -3.669848 -10.57918 -0.748827 3.755642 -10.591175 -27.129515 -3.812989 14.745788 -49.944054 2.741853 0.701921 -0.239017 -32.59705 0.203587 10.956528 5.400764 -3.882653 -5.882109 9.861288 0.702591 -10.936875 -0.360574 7.156206 0.0 8.774828 -0.0 -16.326323 18.271454 5.900563 -1.844033 2.498505 -2.507277 -10.163604 4.678946 4.62111 -20.97603 -3e-06 1e-06 -21.226295 2.451699 -3.594001 1e-06 -6e-06 -1e-06 -1.362682 2.240799 -0.746323 -21.334919 0.58491 3.008323 -13.821218 -2e-06 1e-06 -23.887177 -0.249079 -0.839485 -60.102505 2.457128 -1.228838 -0.294025 1.679688 0.833256 -14.218212 0.093215 1.300581 -34.212051 -0.287563 0.967171 -20.033216 0.964537 1.212843 1e-06 -0.0 -1e-06 -3.44039 0.788234 0.501656 -15.928192 -3.16731 2.999707 -6.338829 -1e-06 1e-06 -18.123453 3.648184 -4.905672 -4e-06 0.0 -1e-06 17.424406 10.516513 15.338816 53.566948 2.897615 15.624094 -0.147298 27.049732 0.164323 -1.023332 0.378883 -9.173096 2.243542 -5.255035 -3.180158 14.282891 -0.826593 6.9525 -3e-06 -12.690601 -0.0 16.373423 -17.720959 2.365777 1.665666 -1.955921 -2.878299 4.727799 -4.170586 4.993921 11.020528 4e-06 -2e-06 12.109054 -3.735713 -2.866783 -0.0 -0.0 0.0 1.291986 -1.928549 -1.498089 14.800129 0.567469 3.865604 14.242577 -1.341734 -6.660659 19.631973 0.143927 -0.648246 49.866051 -0.532168 -6.194221 0.353029 -1.51115 -0.03194 20.222794 3.68431 2.316628 18.787275 7e-06 -2e-06 10.751633 -0.479866 1.397903 -1e-06 -0.0 1e-06 3.273808 0.305946 -0.580112 21.486818 11.830376 2.266131 8.162928 3e-06 -1e-06 18.399082 -3.798982 -4.940576 2e-06 0.0 -1e-06 -5.361622 7.154046 -12.686748 -0.103 -0.138686 13.867487 -5.444654 -1.316793 1.102931 1.648831 -1.881344 -3.991605 -0.0 -0.0 2e-06 -6.941961 -5.65634 -4.144802 -0.046587 -0.059049 46.974995 2.663776 4.785808 1.628761 -1.585752 0.881797 -18.891296 -0.0 0.0 -0.0 
0.0 0.0 0.0 0.0 -0.0 0.0 2.928179 99.068298 6.695858 3.385408 -1.08578 -2.989377 -2.942756 -0.092366 0.123275 -0.70539 0.242436 -4.739752 -0.856003 -1.975343 12.316482 -1.952937 4.663475 18.049986 -1.108468 -1.696235 -3.530165 1.116713 -1.787612 0.860144 7.7e-05 -2.2e-05 6e-06 0.023399 0.022569 -0.069054 0.78791 -3.684117 -10.595967 -0.746844 3.731509 -10.61449 -26.508028 -3.977595 14.754123 -49.940559 2.70221 0.528156 -0.454966 -34.696579 0.271913 11.16971 5.251818 -4.143288 -5.882111 9.861292 0.702591 -10.93688 -0.360575 7.156209 1e-06 8.774831 -0.0 -16.325686 18.239065 5.833628 -1.844033 2.498506 -2.507279 -10.16361 4.678948 4.62111 -20.976042 -4e-06 1e-06 -21.226305 2.451699 -3.594002 1e-06 -6e-06 -1e-06 -1.362684 2.240799 -0.746323 -21.33493 0.58491 3.008324 -13.821227 -3e-06 2e-06 -23.88719 -0.249079 -0.839483 -60.061394 2.438321 -1.416654 -0.294026 1.679687 0.833256 -14.218221 0.093215 1.300581 -34.212082 -0.287564 0.96717 -20.033232 0.964537 1.212845 1e-06 -0.0 -1e-06 -3.440391 0.788234 0.501657 -15.928201 -3.167311 2.999708 -6.338832 -1e-06 1e-06 -18.123465 3.648185 -4.905674 -4e-06 0.0 -1e-06 16.858631 10.123753 15.360428 54.403915 1.79017 15.845719 -0.169599 27.512999 0.137102 -0.631837 0.223166 -9.718072 2.243543 -5.25504 -3.18016 14.2829 -0.826596 6.952506 -3e-06 -12.690611 2e-06 16.529802 -17.77421 2.314887 1.665667 -1.955922 -2.878301 4.727801 -4.17059 4.993925 11.020534 3e-06 -2e-06 12.109058 -3.735718 -2.866786 -0.0 0.0 -0.0 1.291987 -1.92855 -1.49809 14.800138 0.567468 3.86561 14.242582 -1.341737 -6.660661 19.631977 0.143926 -0.648246 49.940346 -0.51636 -6.309198 0.353029 -1.511151 -0.03194 20.222803 3.684313 2.316632 18.787287 6e-06 -2e-06 10.751634 -0.479868 1.397907 -1e-06 -0.0 1e-06 3.273809 0.305947 -0.580109 21.486828 11.830382 2.266133 8.162931 2e-06 -1e-06 18.399096 -3.798986 -4.940578 3e-06 1e-06 -3e-06 -6.069139 7.708429 -10.272733 -0.118714 -0.145289 13.310442 -4.866778 -1.359667 -0.159541 1.643283 -1.909749 -3.614424 -0.0 0.0 2e-06 -8.051245 -5.132118 -8.356455 -0.006547 -0.067491 55.751793 4.266406 4.488138 6.159082 -1.506902 0.859504 -13.849649 0.0 -0.0 -4e-06 
0.0 0.0 0.0 0.0 -0.0 0.0 3.509406 99.046829 8.721107 3.559381 -1.536279 -3.775837 -3.269375 -0.14009 0.539319 -0.712527 -0.005476 -4.645494 -0.911561 -2.064589 12.596999 -1.913724 4.541049 18.218822 -1.093736 -1.826363 -3.558937 0.943519 -1.828396 0.752021 7.7e-05 -2.2e-05 6e-06 0.032505 0.013989 -0.067515 0.803253 -3.688524 -10.615878 -0.74471 3.718758 -10.642795 -26.182892 -4.196586 14.78243 -49.433868 2.468493 0.976954 -0.367873 -36.206543 0.223762 11.369881 5.034312 -4.577038 -5.882111 9.861288 0.70259 -10.936878 -0.360575 7.156207 1e-06 8.774828 0.0 -16.299803 18.268114 5.837176 -1.844035 2.498505 -2.507279 -10.163609 4.678946 4.621109 -20.97604 -5e-06 -1e-06 -21.226301 2.451696 -3.594003 1e-06 -6e-06 -0.0 -1.362682 2.240799 -0.746324 -21.334929 0.584909 3.00832 -13.821223 -4e-06 -1e-06 -23.887184 -0.249082 -0.839486 -60.052662 2.408108 -1.464201 -0.294026 1.679688 0.833255 -14.21822 0.093215 1.300578 -34.212074 -0.28757 0.967166 -20.033226 0.964534 1.212844 1e-06 -0.0 -1e-06 -3.44039 0.788233 0.501655 -15.9282 -3.16731 2.999706 -6.33883 -1e-06 1e-06 -18.123459 3.648181 -4.905674 -5e-06 -0.0 -2e-06 16.67181 9.627652 15.294959 54.928978 0.881935 16.247995 -0.28603 27.813082 0.054952 -0.427453 0.268491 -10.207584 2.243543 -5.255038 -3.18016 14.282896 -0.826596 6.952505 -3e-06 -12.690608 0.0 16.577564 -17.826143 2.327206 1.665667 -1.955921 -2.878299 4.7278 -4.170589 4.993925 11.020531 3e-06 -3e-06 12.109056 -3.735716 -2.866785 -1e-06 0.0 0.0 1.291986 -1.928549 -1.498089 14.800132 0.567468 3.86561 14.242579 -1.341735 -6.66066 19.631973 0.143926 -0.648245 50.016335 -0.487427 -6.352087 0.353029 -1.511151 -0.031941 20.222801 3.68431 2.316629 18.787283 4e-06 -2e-06 10.751632 -0.47987 1.397907 -1e-06 -0.0 -0.0 3.273808 0.305947 -0.580112 21.48682 11.830378 2.266132 8.16293 0.0 -1e-06 18.399088 -3.798985 -4.940577 2e-06 1e-06 -2e-06 -6.348909 8.244211 -8.18318 -0.076098 -0.099883 13.612255 -4.580268 -1.235798 -1.884827 1.632357 -1.935138 -3.370063 -0.0 -0.0 2e-06 -8.467307 -4.251464 -11.934417 0.0037 -0.062966 62.257088 5.122532 3.332403 7.729544 -1.439242 0.902988 -7.90367 0.0 -0.0 -2e-06 
